<?xml version="1.0" encoding="UTF-8"?>
<svg width="14px" height="14px" viewBox="0 0 14 14" version="1.1" xmlns="http://www.w3.org/2000/svg" xmlns:xlink="http://www.w3.org/1999/xlink">
    <!-- Generator: Sketch 48.2 (47327) - http://www.bohemiancoding.com/sketch -->
    <title>icon</title>
    <desc>Created with Sketch.</desc>
    <defs></defs>
    <g id="Mobile" stroke="none" stroke-width="1" fill="none" fill-rule="evenodd" transform="translate(-362.000000, -183.000000)">
        <g id="popup" transform="translate(-2.000000, -1.000000)" fill="#868686">
            <g id="icon" transform="translate(358.000000, 178.000000)">
                <path d="M13.7967689,13.7967689 L13.7967689,20.3986676 C13.7967689,21.0421019 13.2751623,21.5637085 12.631728,21.5637085 C11.9882936,21.5637085 11.466687,21.0421019 11.466687,20.3986676 L11.466687,13.7967689 L4.86478841,13.7967689 C4.22135406,13.7967689 3.69974747,13.2751623 3.69974747,12.631728 C3.69974747,11.9882936 4.22135406,11.466687 4.86478841,11.466687 L11.466687,11.466687 L11.466687,4.86478841 C11.466687,4.22135406 11.9882936,3.69974747 12.631728,3.69974747 C13.2751623,3.69974747 13.7967689,4.22135406 13.7967689,4.86478841 L13.7967689,11.466687 L20.3986676,11.466687 C21.0421019,11.466687 21.5637085,11.9882936 21.5637085,12.631728 C21.5637085,13.2751623 21.0421019,13.7967689 20.3986676,13.7967689 L13.7967689,13.7967689 Z" transform="translate(12.631728, 12.631728) rotate(-45.000000) translate(-12.631728, -12.631728) "></path>
            </g>
        </g>
    </g>
</svg>